<svg xmlns="http://www.w3.org/2000/svg" width="120" height="120" fill="none"><path d="M14 14h92v92H14V14z" fill="#d1d2d6"/><path d="M38.2 90.882l7.04-4.26c1.358 2.408 2.594 4.446 5.558 4.446 2.84 0 4.632-1.1 4.632-5.434V56.237h8.646v29.518c0 8.955-5.25 13.03-12.907 13.03-6.916 0-10.93-3.582-12.97-7.905m30.57-.925l7.04-4.076c1.853 3.026 4.262 5.25 8.523 5.25 3.582 0 5.867-1.8 5.867-4.26 0-2.964-2.347-4.014-6.3-5.743l-2.16-.927c-6.238-2.655-10.376-6-10.376-13.03 0-6.484 4.94-11.425 12.66-11.425 5.496 0 9.45 1.915 12.3 6.917l-6.73 4.323c-1.482-2.655-3.087-3.705-5.558-3.705-2.532 0-4.138 1.606-4.138 3.705 0 2.594 1.606 3.644 5.3 5.25l2.16.926c7.35 3.15 11.487 6.36 11.487 13.586 0 7.782-6.114 12.043-14.327 12.043-8.028 0-13.216-3.83-15.748-8.83" fill="#f5f6f7"/></svg>