<svg xmlns="http://www.w3.org/2000/svg" width="24" height="24" fill="none"><path fill-rule="evenodd" d="M12 1.895A10.11 10.11 0 001.895 12c0 4.466 2.897 8.25 6.9 9.6.503.093.69-.217.69-.5l-.013-1.718C6.67 20 6.076 18.03 6.076 18.03c-.46-1.167-1.123-1.477-1.123-1.477-.918-.626.068-.614.068-.614 1.01.075 1.55 1.042 1.55 1.042.9 1.545 2.364 1.098 2.94.838.093-.652.354-1.098.64-1.352-2.246-.255-4.604-1.123-4.604-4.994 0-1.104.39-2.004 1.042-2.71-.105-.254-.452-1.284.1-2.674 0 0 .85-.273 2.78 1.036a9.807 9.807 0 012.53-.341 9.843 9.843 0 012.532.341c1.93-1.31 2.78-1.036 2.78-1.036.552 1.4.205 2.42.1 2.674a3.91 3.91 0 011.035 2.71c0 3.884-2.363 4.734-4.615 4.988.36.3.688.93.688 1.874l-.012 2.773c0 .273.18.583.695.483 4.013-1.34 6.904-5.123 6.904-9.584A10.11 10.11 0 0012 1.895z" fill="#191717"/></svg>