<svg xmlns="http://www.w3.org/2000/svg" width="120" height="120" fill="#d1d2d6"><path d="M101.83 86.802l-40.144 22.7V91.828L86.7 78.065l15.13 8.737zm2.75-2.487V36.828l-14.684 8.487V75.84l14.684 8.474zm-86.565 2.487l40.145 22.7V91.828L33.132 78.065l-15.118 8.737zm-2.75-2.487V36.828l14.684 8.487V75.84l-14.684 8.474zM16.99 33.75l41.17-23.3v17.1L31.567 42.18l-14.58-8.434zm85.87 0l-41.17-23.3v17.1l26.588 14.62 14.58-8.42zM58.157 87.802l-24.684-13.58V47.34L58.157 61.6v26.2zm3.526 0l24.684-13.566V47.34L61.684 61.6v26.2zm-26.54-43.566L59.92 30.618l24.776 13.618L59.92 58.54 35.144 44.236z"/></svg>